<?xml version="1.0" encoding="utf-8"?>
<!-- Generator: Adobe Illustrator 25.0.1, SVG Export Plug-In . SVG Version: 6.00 Build 0)  -->
<svg version="1.1" id="Capa_1" xmlns="http://www.w3.org/2000/svg" xmlns:xlink="http://www.w3.org/1999/xlink" x="0px" y="0px"
	 viewBox="0 0 512 512" style="enable-background:new 0 0 512 512;" xml:space="preserve">
<style type="text/css">
	.st0{fill-rule:evenodd;clip-rule:evenodd;fill:#FFBC85;}
	.st1{fill-rule:evenodd;clip-rule:evenodd;fill:#F5A96C;}
	.st2{fill-rule:evenodd;clip-rule:evenodd;fill:#FED1A3;}
	.st3{fill-rule:evenodd;clip-rule:evenodd;fill:#365E7D;}
	.st4{fill-rule:evenodd;clip-rule:evenodd;fill:#2B4D66;}
	.st5{fill:#F5A96C;}
	.st6{fill-rule:evenodd;clip-rule:evenodd;fill:#EFF6F7;}
	.st7{fill-rule:evenodd;clip-rule:evenodd;fill:#CBE4E7;}
	.st8{fill-rule:evenodd;clip-rule:evenodd;fill:#23A24D;}
	.st9{fill-rule:evenodd;clip-rule:evenodd;fill:#63BA7D;}
	.st10{fill-rule:evenodd;clip-rule:evenodd;fill:#FFD772;}
	.st11{fill:#365E7D;}
	.st12{fill:#2B4D66;}
</style>
<g>
	<g>
		<path class="st0" d="M379.2,368.5l-91.7,97.4L134.6,512h-95v-59.4c0-63.8,93.1-85.4,156-101.5v-52.4h120.8v52.4
			C335.7,356,357.8,361.5,379.2,368.5L379.2,368.5z"/>
	</g>
	<g>
		<path class="st1" d="M143.3,171.8l-16.5,0c-9.5,0-17.2,7.9-17.2,17.5v11.1c0,18.8,18.4,28.9,37.2,29.1
			C181.5,204.5,143.3,171.8,143.3,171.8L143.3,171.8z"/>
	</g>
	<g>
		<path class="st2" d="M143.3,154.3v52.4c0,7.3,1.2,15,3.5,22.8c7.3,25.1,25.4,51,48.8,69.3c9.9,7.7,20.8,14.1,32.2,18.4
			c10.2,3.9,19.2,5.8,28.2,5.8c8.4,0,16.8-1.7,26.2-5h0l2.1-0.8c11.4-4.3,22.2-10.7,32.2-18.4c23.4-18.2,41.5-44.2,48.8-69.3
			c2.2-7.8,3.4-15.5,3.4-22.8v-52.4c-47.1-31-58.3,6.3-99.1-9.4c-4.7-1.8-9.2-2.5-13.6-2.4c-4.4,0-8.9,0.6-13.6,2.4
			C201.6,160.6,190.4,123.3,143.3,154.3L143.3,154.3z"/>
	</g>
	<g>
		<path class="st1" d="M368.7,171.8l-3.4,57.7c18.8-0.2,37.2-10.4,37.2-29.1v-11.1c0-9.6-7.7-17.6-17.2-17.5L368.7,171.8z"/>
	</g>
	<g>
		<path class="st0" d="M411.6,380.9l-60.7,55.4l19.5,75.7h102.1v-59.4C472.4,418.6,445.9,396.5,411.6,380.9L411.6,380.9z"/>
	</g>
	<g>
		<path class="st1" d="M411.6,380.9l-11.5,36.6c15.3,13.1,25,29.2,25,49.8V512h47.3v-59.4C472.4,418.6,445.9,396.5,411.6,380.9z"/>
	</g>
	<g>
		<path class="st3" d="M143.3,171.8c47.1-31,58.3,6.3,99.1-9.4c4.6-1.8,9.2-2.5,13.6-2.4c4.4,0,8.9,0.6,13.6,2.4
			c40.8,15.7,52-21.6,99.1,9.4l4.2,0c22.6,0.1,35.4-46.5,10.9-61.7c-4.2-2.6-15.1-10-10.2-31.2c5.2-22.5-12.8-48.6-44.8-43.9
			c-8.8,1.3-23.1-3.7-38.1-19.7C281,4.8,268.8,0.1,256.7,0h-1.4c-12.2,0.1-24.3,4.8-34,15.3c-14.9,16-29.3,21-38.1,19.7
			c-32-4.7-50,21.4-44.8,43.9c4.9,21.2-6,28.6-10.2,31.2c-24.2,15-11.9,60.8,10.3,61.7L143.3,171.8L143.3,171.8z"/>
	</g>
	<g>
		<path class="st1" d="M283.3,362.9c1.6,5.4,5.1,9.2,13.4,11.3c15.4,3.9,32,8.4,48.2,13.7l24.7-14c-0.6-1.4-1-3-1-4.5
			c0-1.4,0.3-2.7,0.7-3.9c-18.3-5.6-36.7-10.1-53-14.3v-52.4c-9.9,7.7-20.8,14.1-32.2,18.4c-0.7,0.3-1.4,0.5-2.1,0.8
			c-3.6,1.3-7.2,2.4-10.6,3.2c-5.2,1.2-10.2,1.9-15.5,1.9c-9,0-18-1.9-28.2-5.8c-0.5-0.2-1-0.4-1.5-0.6
			c-10.8-4.3-21.2-10.4-30.7-17.8v30.2c9.9,7.7,20.8,14.1,32.2,18.4c11.9,4.5,22.9,6.7,35.5,5.4
			C276.7,351.2,278.3,345.3,283.3,362.9L283.3,362.9z"/>
	</g>
	<g>
		<path class="st0" d="M258.3,305.4c-10,3.7-29.5,2.4-39,2.4c-4.2,0-8.3-0.4-12.6-1.2c6.3,3.9,12.7,7.2,19.6,10
			c9.5,3.7,19.4,6.4,29.7,6.4c5.5,0,10.2-0.8,15.5-1.9c4.4-1,8.5-2.4,12.7-3.9c11.4-4.3,22.2-10.7,32.2-18.4
			c23.4-18.2,41.5-44.2,48.8-69.3c2.2-7.8,3.4-15.5,3.4-22.8v-34.9c-15.3-10-26.7-12.9-36.7-12.7v32.5
			C332,252,312.1,285.1,258.3,305.4z"/>
	</g>
	<g>
		<path class="st4" d="M304.7,27.4c16.9,28.7,27.3,84.3,27.3,109.2c0,7.5-0.1,22.4,0,22.4c10-0.2,21.4,2.7,36.7,12.7l4.2,0
			c22.6,0.1,35.4-46.5,10.9-61.7c-4.2-2.6-15.1-10-10.2-31.2c5.2-22.5-12.8-48.6-44.8-43.9C322.8,35.9,314.3,33.9,304.7,27.4
			L304.7,27.4z"/>
	</g>
	<g>
		<path class="st5" d="M133,465.9V512h-15.5v-46.1c0-4.3,3.5-7.7,7.7-7.7C129.6,458.2,133,461.6,133,465.9z"/>
	</g>
	<g>
		<path class="st6" d="M379.2,368.5L125.3,512H256h114.4l41.3-131.1C401.4,376.2,390.4,372.2,379.2,368.5L379.2,368.5z"/>
	</g>
	<g>
		<path class="st7" d="M379.2,368.5L345,387.9c6.6,2.4,13.1,5.1,19.3,7.9c13.5,6.1,25.9,13.3,35.8,21.8l11.5-36.6
			C401.4,376.2,390.4,372.2,379.2,368.5L379.2,368.5z"/>
	</g>
	<g>
		<g>
			<path class="st8" d="M404.9,363.2c5.4,6.8,22.3,16.1,42.8-14.6c1-1.5,0.2-3.5-1.5-4c-9.2-2.4-16.3-2.9-21.9-2.2
				c-4.5,0.5-7.9,1.8-10.6,3.5C408.7,352.2,407.4,359.3,404.9,363.2L404.9,363.2z"/>
		</g>
		<g>
			<path class="st9" d="M397.1,318.5c-29.1,29.4-2.9,47.1-2.5,47.3c0,0,0,0,0,0c1.9,0,4.1-0.3,6.4-1c6.8-2,14.4-7.3,17-18.6
				c2-9,0.8-21.8-6.6-39.8C411.3,306.4,404.2,311.2,397.1,318.5z"/>
		</g>
	</g>
	<g>
		<path class="st10" d="M391.1,387.4c9.5,3.3,18.9,3.3,25.4,0.7c3.9-1.6,6.8-4.2,8-7.7c1.4-4,0.3-8.6-2.7-12.9
			c-3.8-5.4-10.6-10.4-19.2-13.4c-15.2-5.3-30.2-2.2-33.4,7c-0.6,1.8-0.8,3.7-0.4,5.6C370.1,374.7,378.9,383.1,391.1,387.4z"/>
	</g>
	<g>
		<path class="st11" d="M222.7,212.2c-4.3,0-7.7-3.5-7.7-7.7v-5.4c0-4.3,3.5-7.7,7.7-7.7s7.7,3.5,7.7,7.7v5.4
			C230.4,208.7,226.9,212.2,222.7,212.2z"/>
	</g>
	<g>
		<path class="st11" d="M292.5,212.2c-4.3,0-7.7-3.5-7.7-7.7v-5.4c0-4.3,3.5-7.7,7.7-7.7s7.7,3.5,7.7,7.7v5.4
			C300.3,208.7,296.8,212.2,292.5,212.2z"/>
	</g>
	<g>
		<path class="st5" d="M254.8,285.7c-9.4,0-16.7-3.1-21.7-6.4c-3.6-2.4-4.5-7.2-2.2-10.7c2.4-3.6,7.2-4.5,10.7-2.2
			c7.9,5.3,18.1,5.1,30.3-0.3c3.9-1.8,8.5,0,10.2,3.9c1.8,3.9,0,8.5-3.9,10.2C269.3,284.2,261.5,285.7,254.8,285.7L254.8,285.7z"/>
	</g>
	<g>
		<path class="st12" d="M196,93.1c-2.2,0-4.4-1-6-2.8c-2.7-3.3-2.3-8.2,1-10.9c7.5-6.2,20.4-11.5,38.9-1.1c3.7,2.1,5,6.8,3,10.5
			c-2.1,3.7-6.8,5-10.5,3c-11.8-6.6-17.9-3.5-21.5-0.5C199.5,92.5,197.7,93.1,196,93.1L196,93.1z"/>
	</g>
	<g>
		<path class="st12" d="M287.5,118.7c-2.2,0-4.4-1-6-2.8c-2.7-3.3-2.3-8.2,1-10.9c7.5-6.2,20.4-11.5,39-1c3.7,2.1,5,6.8,2.9,10.5
			c-2.1,3.7-6.8,5-10.5,2.9c-11.8-6.7-18-3.5-21.5-0.6C291,118.1,289.3,118.7,287.5,118.7z"/>
	</g>
</g>
</svg>
