<?xml version="1.0" encoding="utf-8"?>
<!-- Generator: Adobe Illustrator 25.0.1, SVG Export Plug-In . SVG Version: 6.00 Build 0)  -->
<svg version="1.1" id="Capa_1" xmlns="http://www.w3.org/2000/svg" xmlns:xlink="http://www.w3.org/1999/xlink" x="0px" y="0px"
	 viewBox="0 0 512 512" style="enable-background:new 0 0 512 512;" xml:space="preserve">
<style type="text/css">
	.st0{fill-rule:evenodd;clip-rule:evenodd;fill:#EFF6F7;}
	.st1{fill-rule:evenodd;clip-rule:evenodd;fill:#FFBC85;}
	.st2{fill-rule:evenodd;clip-rule:evenodd;fill:#DD636E;}
	.st3{fill-rule:evenodd;clip-rule:evenodd;fill:#63BA7D;}
	.st4{fill-rule:evenodd;clip-rule:evenodd;fill:#23A24D;}
	.st5{fill-rule:evenodd;clip-rule:evenodd;fill:#FFD772;}
	.st6{fill-rule:evenodd;clip-rule:evenodd;fill:#365E7D;}
	.st7{fill-rule:evenodd;clip-rule:evenodd;fill:#FED1A3;}
	.st8{fill-rule:evenodd;clip-rule:evenodd;fill:#2B4D66;}
	.st9{fill-rule:evenodd;clip-rule:evenodd;fill:#F5A96C;}
	.st10{fill-rule:evenodd;clip-rule:evenodd;fill:#DA4A54;}
	.st11{fill-rule:evenodd;clip-rule:evenodd;fill:#CBE4E7;}
	.st12{fill-rule:evenodd;clip-rule:evenodd;fill:#FBBA58;}
	.st13{fill:#365E7D;}
	.st14{fill-rule:evenodd;clip-rule:evenodd;fill:#AF857F;}
	.st15{fill-rule:evenodd;clip-rule:evenodd;fill:#98756E;}
	.st16{fill:#BF5A45;}
	.st17{fill:#6C342A;}
	.st18{fill:#366DB6;}
	.st19{fill:#23A24D;}
</style>
<g>
	<g>
		<path class="st0" d="M447.2,422.2c-175.3,65-338.3-37.6-339.4-38.6c-35.9,15.1-64.6,36.8-64.6,71.4v57h415v-57.5
			C458.2,442.2,454.2,431.5,447.2,422.2L447.2,422.2z"/>
	</g>
	<g>
		<path class="st1" d="M245.5,313c-9,0-18-1.9-28.3-5.8c-2.1-0.8-4.2-1.7-6.2-2.6l-18.2,27.5v25.7c-11.3,2.9-23.6,6-36.2,9.4
			c-6.6,6.4-6.9,12.9-3.3,17.1c51.4,47.3,125.6,56.7,221.2-5.7c-25.9-8.8-53.5-15.1-75.7-20.8V332l-18.8-27.3c-2,0.9-4,1.7-6.1,2.5
			C263.6,311,254.6,313,245.5,313L245.5,313z"/>
	</g>
	<g>
		<path class="st2" d="M374.4,378.6c-94,39.5-168.4,31.4-221.2,5.7c-8.5-5.7-13.2-10.2-22.3-10.2c-7.5,0-14.6,4.5-19.3,12.2
			c47.6,57.8,160.3,100.9,335.6,35.9C432.4,402.4,404.6,388.8,374.4,378.6L374.4,378.6z"/>
	</g>
	<g>
		<g>
			<path class="st3" d="M106,337.6c-7.9,40.6,23.7,40.8,24.2,40.8c0,0,0,0,0,0c1.5-1.1,3.2-2.5,4.7-4.3c4.6-5.4,8-14,3.8-24.9
				c-3.3-8.6-11.5-18.6-27.6-29.5C111.1,319.7,108,327.6,106,337.6z"/>
		</g>
		<path class="st3" d="M181,357.1c-35.9-14.8-49.7,13-50,13.4c0,0,0,0,0,0c0.4,1.6,1,3.3,2.2,5c3.3,5.1,10.2,9.8,22.5,8.1
			c9.8-1.3,22.9-6.5,40.5-18.6C196.2,365.1,189.9,360.8,181,357.1z"/>
		<g>
			<path class="st4" d="M137.3,370.4c8.3,2.7,27.5,1,27.5-35.9c0-1.8-1.8-3.1-3.4-2.5c-9,3.1-15.2,6.7-19.4,10.3
				c-3.4,2.9-5.6,5.9-6.9,8.8C134.4,359.2,137.3,365.8,137.3,370.4L137.3,370.4z"/>
		</g>
	</g>
	<g>
		<path class="st5" d="M131,390.9c9.1,0,17.1-2.6,22.3-6.6c3.6-2.8,5.7-6.4,5.7-10.2c0-2.4-0.9-4.8-2.4-6.9
			c-4.4-5.9-14.2-10-25.6-10c-15.5,0-28,7.5-28,16.9c0,3.5,1.8,6.8,4.9,9.5c1.1,1,2.4,1.9,3.8,2.7
			C116.7,389.1,123.5,390.9,131,390.9L131,390.9z"/>
	</g>
	<g>
		<path class="st6" d="M192.8,332.1c4.7,1.2,9.6,2.3,14.7,3.1c1.8,0.3,3.5-1.1,3.5-3V315l68.9,0.1v17.2c0,1.9,1.7,3.3,3.5,3
			c5.3-0.9,10.4-2,15.3-3.3c33.2-8.8,57.1-27.3,69.6-52.8c0.4-0.8,0.5-1.6,0.3-2.4l-10.3-61.5v-8.2v-0.2v-34.9v-46.6
			c0-48-38.9-86.9-86.9-86.9h-48c-50.2,0-90.9,40.7-90.9,90.9v85.8l-10.3,61.5c-0.1,0.8,0,1.7,0.3,2.4
			C135.2,304.8,159.4,323.4,192.8,332.1L192.8,332.1z"/>
	</g>
	<g>
		<path class="st7" d="M211,315c2.1,0.9,4.1,1.8,6.2,2.6c10.2,3.9,19.2,5.8,28.3,5.8c9,0,18.1-1.9,28.3-5.8c2.1-0.8,4.1-1.6,6.1-2.5
			v-77.6c0-1.9,1.3-3.5,3.1-3.9c34-8.2,37.5-47.4,37.5-71.2v-21.2c0-2.2-1.8-4-4-4h-51.1l-18,15.6c-1.1,1-2.8,1-3.9,0l-18-15.6
			h-51.1c-2.2,0-4,1.8-4,4v21.2c0,23.7,3.6,63,37.5,71.2c1.8,0.4,3.1,2,3.1,3.9L211,315z"/>
	</g>
	<g>
		<path class="st5" d="M221.2,80.9l23,10.9c0.8,0.4,1.8,0.4,2.6,0l23-10.9c1-0.5,1.7-1.6,1.7-2.7V38.5V26c0-15-12.9-27.1-28.1-25.9
			c-13.6,1.1-23.9,12.8-23.9,26.4v12v39.7C219.5,79.3,220.2,80.4,221.2,80.9z"/>
	</g>
	<g>
		<path class="st8" d="M271.5,54.9c36.9,11,65.1,35.6,65.1,76.8v42.6v34.9v8.4l2.6,45.5l8.3,43.5c8.7-7.9,15.7-17.1,20.8-27.4
			c0.4-0.8,0.5-1.6,0.3-2.4l-10.3-61.5v-8.3v-34.9v-42.6c0-50-36.9-90.9-86.9-90.9L271.5,54.9z"/>
	</g>
	<g>
		<path class="st9" d="M192.8,342.5c16.1,9.5,42.9,14.2,67.2,11.2c9.3-1.2,7.5-0.1,7.5,9.3c0,10.9,2,15.5,11.8,18
			c16.8,4.2,31.2,7.7,50.1,13.4c14.5-4.1,29.5-9.3,45-15.8c-25.9-8.8-53.5-15.1-75.7-20.8v-15.4V332c-6,1.6-12.2,2.9-18.8,3.8v-20.7
			c-2,0.9-4,1.7-6.1,2.5c-10.2,3.9-19.2,5.8-28.3,5.8c-9,0-18-1.9-28.3-5.8c-2.1-0.8-4.2-1.6-6.2-2.6v20.8
			c-6.4-0.9-12.4-2.1-18.2-3.7L192.8,342.5L192.8,342.5z"/>
	</g>
	<g>
		<path class="st10" d="M374.4,378.6c-15.6,6.5-30.5,11.8-45,15.8c4.7,1.4,9.3,2.9,13.9,4.4c26.1,8.9,50.5,20.3,66.1,36
			c12.3-3.7,24.9-7.9,37.8-12.7C432.4,402.4,404.6,388.8,374.4,378.6L374.4,378.6z"/>
	</g>
	<g>
		<path class="st11" d="M481.2,422.2c-12.9,4.8-25.5,9-37.8,12.7c2.4,2.4,4.6,4.9,6.6,7.6c7,9.3,11,20,11,32.3V512h31.2v-57.5
			C492.2,442.2,488.1,431.5,481.2,422.2z"/>
	</g>
	<g>
		<path class="st12" d="M253.5,88.5l16.2-7.6c1.1-0.5,1.7-1.6,1.7-2.7V26c0-14.3-11.7-26-26-26c-3.2,0-6.2,0.6-9,1.6
			c9.9,3.7,17,13.2,17,24.4V88.5z"/>
	</g>
	<g>
		<path class="st13" d="M220.3,192.5c-1.2,0-2.4-0.3-3.6-0.9l-10.4-5.4c-3.8-2-5.3-6.6-3.3-10.4c2-3.8,6.6-5.3,10.4-3.3l10.4,5.4
			c3.8,2,5.3,6.6,3.3,10.4C225.8,190.9,223.1,192.5,220.3,192.5z"/>
	</g>
	<g>
		<path class="st13" d="M269.5,192.5c-2.8,0-5.5-1.5-6.9-4.2c-2-3.8-0.5-8.5,3.3-10.4l10.4-5.4c3.8-2,8.5-0.5,10.4,3.3
			c2,3.8,0.5,8.5-3.3,10.4l-10.4,5.4C271.9,192.2,270.7,192.5,269.5,192.5z"/>
	</g>
	<g>
		<path class="st0" d="M95.7,404.5V246.7V70.8c0-0.7-0.3-1.5-0.8-2l-32-35.1c-1.2-1.3-3.2-1.3-4.4,0l-32,35.1
			c-0.5,0.6-0.8,1.3-0.8,2v176.3v157.3L64.1,417L95.7,404.5z"/>
	</g>
	<g>
		<path class="st14" d="M60.5,433.4l-17.8,10.3v61.4c0,3.8,3.1,6.9,6.9,6.9h21.7h0.6c3.8,0,6.8-3.1,6.8-6.9v-61.4L60.5,433.4z"/>
	</g>
	<g>
		<path class="st5" d="M25.8,404.5h-5.4c-3.5,0-6.4,2.9-6.4,6.4v13.2c0,10.8,8.8,19.6,19.6,19.6h54.3c10.8,0,19.6-8.8,19.6-19.6
			v-13.2c0-3.5-2.9-6.4-6.4-6.4C76,404.5,50.9,404.5,25.8,404.5L25.8,404.5z"/>
	</g>
	<g>
		<path class="st15" d="M60.7,443.7v61.4c0,3.8-3.1,6.9-6.8,6.9h17.4h0.6c3.8,0,6.8-3.1,6.8-6.9v-61.4h-6.3h-2.5H60.7z"/>
	</g>
	<g>
		<path class="st12" d="M78.7,443.7h9.2c10.8,0,19.6-8.8,19.6-19.6v-13.2c0-3.5-2.9-6.4-6.4-6.4h-2.4h-2.9h-18l-2,0.8
			c2,1.1,3.4,3.2,3.4,5.6v0.1v13.1c0,0.8,0,1.5-0.1,2.2c-0.5,4.1-2.2,7.9-4.9,10.8c-0.8,0.9-1.7,1.7-2.7,2.5
			c-3,2.3-6.7,3.8-10.8,4.1l0.1,0h9.2h2.5L78.7,443.7L78.7,443.7z"/>
	</g>
	<g>
		<path class="st11" d="M71.8,404.5h23.9V246.7V70.8c0-0.7-0.3-1.5-0.8-2l-32-35.1c-1.2-1.3-3.2-1.3-4.4,0L43.3,50.5l28.5,29.6
			v166.7V404.5z"/>
	</g>
</g>
<g>
	<path class="st16" d="M400.6,510.5c79.8-35.5,110.9-119.7,110.9-204l-110.9-53.2l-110.9,53.2C289.7,390.8,320.7,475,400.6,510.5z"
		/>
	<path class="st17" d="M307.4,319.8c1.7,46.4,15.9,129.5,93.1,168.5c77.2-39.1,91.4-122.1,93.1-168.5l-93.1-44.4L307.4,319.8z"/>
	<path class="st18" d="M456.9,369.8c-2.1-0.1-4.2-1-5.7-3.3c-1.4-2.2-3.5-3.9-5-5.9c-1.4-1.8-2.5-3.7-3.7-5.7
		c-2.5-4.1-5.2-7.7-8.8-11c-3.3-3-2.7-6.9-0.4-9.4c-9.3-6.5-20.6-10.3-32.8-10.3c-10.6,0-20.5,2.9-29.1,7.9c1.7,2,2.4,4.9,0.7,7.9
		c-3.8,7.1-9,13.4-13.1,20.4c-5,8.7-5.9,16.8-6.5,26.6c-0.3,5-4.7,7.3-8.5,6.9c3.7,17.5,15.4,32,31,39.7c1.2-1.5,3-2.6,5.4-2.5
		c16.3,0.1,35.4,3,48.3-9.2c4-3.7,9.1-1.7,11.3,1.8c11.1-10.5,18-25.3,18-41.8C458.2,377.8,457.8,373.7,456.9,369.8z"/>
	<g>
		<path class="st19" d="M342.9,381.9c0,4.6,0.6,9,1.6,13.3h25l4.4-13.3l8.9-8.9l8.9-8.9v-13.3l-19.3-19.3
			C354.8,341.5,342.9,360.3,342.9,381.9z"/>
		<path class="st19" d="M457.2,371c-3-15.5-12.2-28.9-24.9-37.3l-5.1,12.7v17.7l4.4,8.9l13.3,8.9L457.2,371z"/>
		<path class="st19" d="M400.6,439.5c15.8,0,30.2-6.4,40.6-16.7l-9.5-14.3l-8.9-4.4l-17.7,4.4h-13.3l-13.3,13.3l-4.5,11.2
			C381.9,437.1,390.9,439.5,400.6,439.5z"/>
	</g>
</g>
</svg>
