<?xml version="1.0" encoding="utf-8"?>
<!-- Generator: Adobe Illustrator 25.0.1, SVG Export Plug-In . SVG Version: 6.00 Build 0)  -->
<svg version="1.1" id="Capa_1" xmlns="http://www.w3.org/2000/svg" xmlns:xlink="http://www.w3.org/1999/xlink" x="0px" y="0px"
	 viewBox="0 0 512 512" style="enable-background:new 0 0 512 512;" xml:space="preserve">
<style type="text/css">
	.st0{fill-rule:evenodd;clip-rule:evenodd;fill:#FFCEBE;}
	.st1{fill-rule:evenodd;clip-rule:evenodd;fill:#FFDECF;}
	.st2{fill-rule:evenodd;clip-rule:evenodd;fill:#FFAF9E;}
	.st3{fill-rule:evenodd;clip-rule:evenodd;fill:#EFF6F7;}
	.st4{fill-rule:evenodd;clip-rule:evenodd;fill:#FBBA58;}
	.st5{fill-rule:evenodd;clip-rule:evenodd;fill:#AF857F;}
	.st6{fill-rule:evenodd;clip-rule:evenodd;fill:#23A24D;}
	.st7{fill-rule:evenodd;clip-rule:evenodd;fill:#98756E;}
	.st8{fill:#365E7D;}
	.st9{fill:#DD636E;}
	.st10{fill:#FBBA58;}
	.st11{fill-rule:evenodd;clip-rule:evenodd;fill:#63BA7D;}
	.st12{fill:#3399CC;}
	.st13{fill:#63BA7D;}
</style>
<g>
	<g>
		<path class="st0" d="M196,300.2v52c-19.9,5.1-41.8,10.7-62.4,18.1c-9.4,16.7-4.8,21.2,2.3,32.8c58.8,49.4,181.2,48.7,240,0
			c12.1-3.8,9.2-25.5,2.4-32.9c-20.6-7.4-42.5-13-62.3-18v-52C273.8,281.6,235,287.6,196,300.2z"/>
	</g>
	<g>
		<path class="st0" d="M99,512c3.3-11.5,53.5-137.3-3.8-124.4c-25.7,15-43.9,35.6-43.9,65.3v59H99z"/>
	</g>
	<g>
		<path class="st0" d="M396.5,403.8c-18.4,50.1-16,55.2,16.4,108.2h47.7v-59c0-29.8-18.2-50.3-44-65.4
			C416.3,395.2,407.9,401.6,396.5,403.8L396.5,403.8z"/>
	</g>
	<g>
		<path class="st1" d="M318.2,129.6c-45.5-56.6-171.9-12.9-161.7,19.3c7,19.4-21.1,28.4-7.4,43.6c10.8,11.9,15,47.6,12.1,67.4
			c8.7,15,20.8,29,34.8,40.3c10,8,21,14.5,32.6,18.9c9.9,3.7,18.7,5.6,27.5,5.6c8.7,0,17.5-1.9,27.4-5.6
			c11.5-4.4,22.6-10.9,32.6-18.9c19.7-15.7,35.4-37.1,43.6-58.4c-2.2-15.2,22.6-30.2,30.3-38.6c13.7-15.1-24.5-51.2-22.7-64.5
			C370.9,109.4,328.6,105.9,318.2,129.6z"/>
	</g>
	<g>
		<path class="st0" d="M314.4,193.1c0,38.2-15,72.6-38.9,96.2c-13.9,13.7-30.7,23.8-49.4,28.9c0.8,0.3,1.6,0.6,2.4,0.9
			c9.9,3.7,18.7,5.6,27.5,5.6c8.7,0,17.5-1.9,27.4-5.6c11.5-4.4,22.6-10.9,32.6-18.9c19.7-15.7,35.4-37.1,43.6-58.4
			c-2.2-15.2-3-30.5,4.6-39c13.7-15.1-9.1-30.2-7.4-43.6c3.8-29.2-38.5-32.7-48.9-9C312.1,163.6,314.4,178,314.4,193.1L314.4,193.1z
			"/>
	</g>
	<g>
		<path class="st2" d="M283.4,342.5c5.6-2.1,3.1,15.9,3,22.3c0,8.6,18.1,9.8,27.4,12.1c16.7,4.1,27.8,6.9,44.9,11.8
			c-0.1-0.6-0.1-1.1-0.1-1.7c0-7.8,8.2-14.4,19.7-16.7c-20.6-7.4-42.5-13-62.3-18v-17.3v-34.7c-10,8-21,14.5-32.6,18.9
			c-9.9,3.7-18.7,5.6-27.4,5.6c-8.8,0-17.5-1.9-27.5-5.6c-0.8-0.3-1.6-0.6-2.4-0.9c-10.7-4.3-20.9-10.5-30.2-17.9v23.4
			C222.2,344.6,251,354.8,283.4,342.5L283.4,342.5z"/>
	</g>
	<g>
		<path class="st2" d="M416.7,387.6c-0.4,7-7.5,13-17.6,15.6c34.3,18.8,32,58.9,32,67.6V512h29.6v-59
			C460.6,423.2,442.4,402.7,416.7,387.6L416.7,387.6z"/>
	</g>
	<g>
		<path class="st3" d="M115.4,403.8c1.9,45.3-16.5,45.8-16.4,108.2h157h156.9c0.2-62.4-18.2-62.9-16.4-108.2
			c-6.5-5.3-13.8-4.2-20.6-0.6c-58.8,41.8-181.2,41.8-240,0C128.6,397.3,121.2,396.2,115.4,403.8L115.4,403.8z"/>
	</g>
	<g>
		<path class="st4" d="M396.5,403.8c11.4-2.2,19.7-8.6,20.1-16.2c0-0.2,0-0.4,0-0.6c0-9.8-13-17.6-29-17.6c-3.3,0-6.4,0.3-9.3,0.9
			c-11.5,2.4-19.7,9-19.7,16.7c0,7.2,7.1,13.4,17.4,16.1c3.6,1,7.5,1.5,11.7,1.5C390.7,404.6,393.7,404.3,396.5,403.8L396.5,403.8z"
			/>
	</g>
	<g>
		<path class="st4" d="M153.3,387c0-7.8-8.2-14.3-19.7-16.7c-2.9-0.6-6.1-0.9-9.4-0.9c-16,0-29,7.9-29,17.6c0,0.2,0,0.4,0,0.6
			c0.4,7.6,8.7,13.9,20.1,16.2c2.8,0.6,5.8,0.8,8.9,0.8c4.2,0,8.1-0.5,11.7-1.5C146.2,400.4,153.3,394.2,153.3,387L153.3,387z"/>
	</g>
	<g>
		<path class="st5" d="M166.8,159.2c-10.2-32.2,95.6-65.6,141.1-9c10.5-23.8,52.7-20.2,48.9,9c-1.7,13.4,21.1,28.4,7.4,43.6
			c-7.7,8.4-6.8,23.7-4.6,39c2.1,14.4,5.3,28.8,3.7,37.4c-6.1,31.4,4.9,54.4,24.8,59.4c4.9,1.2-4.6-8.6,0.7-25.9
			c0,0,7.2-12.8,6.8-28.1c-0.4-17.4-7.7-58.7,3.8-65.5c12.5-13.1,34-32,12.1-68.1c-15.8-25.9-11.4-33.9-10.1-45.7l-11.7-28.1
			c-0.6-4.9-6.3-13.9-4-20.5C356.5,9.2,311.6,0.4,261.8,0c-47.4,0.4-90.2,8.4-119.5,49.9c-6.9,9.1-5.3,20.9-6.5,25.5L121.9,98
			c-0.8,16.7,8.9,22.1-9.8,52.9c-21.9,36.1-0.4,55,12.1,68.1c11.5,6.8,4.2,48,3.8,65.5c-0.4,15.3,6.8,28.1,6.8,28.1
			c5.3,17.3-4.2,27.1,0.7,25.9c20-5,31-27.9,24.9-59.4c-1-4.9-0.3-11.6,0.8-19.2c2.9-19.8,9-45.2-1.8-57.1
			C145.7,187.7,173.8,178.6,166.8,159.2L166.8,159.2z"/>
	</g>
	<g>
		<path class="st6" d="M120.7,88.1c5.8-3.2,14-9.5,21.3-21c1.3-4.7,1.6-10.3,0.3-17.1c-1.6-8.5-5.6-18.9-13.4-31.4
			c-1.5-2.3-4.8-2.5-6.5-0.4C86.7,62.7,108.1,83.3,120.7,88.1L120.7,88.1z"/>
	</g>
	<g>
		<path class="st6" d="M401.7,97.6c13.1-3,37.3-20.4,8.2-69.4c-1.4-2.4-4.7-2.7-6.5-0.6c-9.4,11.2-14.9,20.8-17.7,29
			c-2.3,6.6-2.7,12.3-2.1,17.2C389,85,398,91.5,401.7,97.6L401.7,97.6z"/>
	</g>
	<g>
		<path class="st7" d="M321.9,70.3c0.3,3.9,0.4,7.9,0.4,12c0,23.6-4.6,45.7-12.6,64.6c12.8-19.9,50.8-15.4,47.1,12.4
			c-1.7,13.4,21.1,28.4,7.4,43.6c-7.7,8.4-6.8,23.7-4.6,39c2.1,14.4,5.3,28.8,3.7,37.4c-6.1,31.4,4.9,54.4,24.8,59.4
			c4.9,1.2-4.6-8.6,0.7-25.9c0,0,7.2-12.8,6.8-28.1c-0.4-17.4-7.7-58.7,3.8-65.5c12.5-13.1,34-32,12.1-68.1
			c-15.8-25.9-11.4-33.9-10.1-45.7v0c0.4-2.2,0.5-4.8,0.2-7.6c-0.8-8.4-5.3-18.4-18.1-23.8c-0.9-5.3,0.4-12.2,2.1-17.2
			c-21-34.1-50.1-48.2-83.3-53.6C313.2,21.8,320.2,44.9,321.9,70.3z"/>
	</g>
	<g>
		<path class="st8" d="M236.5,375.3c-0.5,0-0.9,0-1.4-0.1c-14.3-2.6-28.8-8.1-42.9-16.3c-3.7-2.1-5-6.9-2.8-10.6
			c2.1-3.7,6.9-5,10.6-2.8c12.6,7.3,25.4,12.2,38,14.5c4.2,0.8,7,4.8,6.2,9C243.4,372.7,240.1,375.3,236.5,375.3z M275.4,375.2
			c-3.6,0-6.9-2.6-7.6-6.3c-0.8-4.2,2-8.2,6.2-9c12.4-2.3,25.3-7.2,38.3-14.4c3.7-2.1,8.4-0.7,10.5,3c2.1,3.7,0.7,8.4-3,10.5
			c-14.4,8-28.8,13.4-42.9,16.1C276.4,375.2,275.9,375.2,275.4,375.2L275.4,375.2z"/>
	</g>
	<g>
		<path class="st8" d="M222.6,200.1c-4.3,0-7.7-3.5-7.7-7.7V187c0-4.3,3.5-7.7,7.7-7.7s7.7,3.5,7.7,7.7v5.4
			C230.4,196.6,226.9,200.1,222.6,200.1z"/>
	</g>
	<g>
		<path class="st8" d="M292,200.1c-4.3,0-7.7-3.5-7.7-7.7V187c0-4.3,3.5-7.7,7.7-7.7s7.7,3.5,7.7,7.7v5.4
			C299.8,196.6,296.3,200.1,292,200.1z"/>
	</g>
	<g>
		<path class="st9" d="M255.9,288.2c-11.1,0-21.3-4.6-27.9-12.7c-2.7-3.3-2.2-8.2,1.1-10.9s8.2-2.2,10.9,1.1c3.6,4.5,9.4,7,15.9,7
			h0.1c6.4,0,12.3-2.6,15.9-7c2.7-3.3,7.5-3.9,10.9-1.2c3.3,2.7,3.9,7.5,1.2,10.9c-6.4,8-16.8,12.7-27.8,12.8
			C256,288.2,256,288.2,255.9,288.2L255.9,288.2z"/>
	</g>
	<g>
		<path class="st10" d="M345.4,83.1c-0.6,0-10.8-2.4-11.3-2.5c-45.3-10.3-97.4-10.3-142.8-0.2c-4.2,0.9-23.7,8.7-24.6,4.5
			c-0.5-2.3-5.5-10-1-13.1c3.5-2.4,14.4-4.4,22.3-6.5c47.6-10.6,102.1-10.6,149.6,0.2c26.7,8,22.8,8.7,21.9,12.9
			C358.5,81.9,348.9,83.1,345.4,83.1z"/>
	</g>
	<g>
		<path class="st11" d="M121.9,98c6.9,7.3,31.2,26,64.6-20.7c1.6-2.2,0.5-5.3-2-6.2c-19.1-6.2-32.8-6.7-42.5-4.1
			c-13.4,3.6-19.3,12.9-21.3,21c-0.7,2.7-0.9,5.4-0.8,7.6C119.9,95.7,120.6,96.6,121.9,98z"/>
	</g>
	<g>
		<path class="st11" d="M346.7,92.1c28,40.3,54.3,13.6,54.7,13.2c0,0,0,0,0,0c0.4-2.2,0.5-4.8,0.2-7.6c-0.8-8.4-5.3-18.4-18.1-23.8
			c-10.1-4.3-25.3-5.6-47.9-0.9C335.7,72.9,339.8,82.2,346.7,92.1z"/>
	</g>
</g>
<g>
	<path class="st12" d="M283.8,369.6c-1,0-2-0.5-2.7-1.6c-0.6-1-1.6-1.8-2.4-2.8c-0.7-0.8-1.2-1.8-1.8-2.7c-1.2-2-2.5-3.7-4.2-5.2
		c-1.6-1.4-1.3-3.3-0.2-4.5c-4.4-3.1-9.8-4.9-15.6-4.9c-5.1,0-9.8,1.4-13.8,3.8c0.8,1,1.1,2.3,0.4,3.8c-1.8,3.4-4.3,6.4-6.2,9.7
		c-2.4,4.1-2.8,8-3.1,12.7c-0.1,2.4-2.2,3.5-4.1,3.3c1.8,8.3,7.3,15.2,14.7,18.9c0.5-0.7,1.4-1.2,2.6-1.2c7.8,0.1,16.8,1.4,23-4.4
		c1.9-1.8,4.3-0.8,5.4,0.8c5.3-5,8.6-12,8.6-19.9C284.4,373.4,284.2,371.5,283.8,369.6z"/>
	<g>
		<path class="st13" d="M229.5,375.3c0,2.2,0.3,4.3,0.8,6.3h11.9l2.1-6.3l4.2-4.2l4.2-4.2v-6.3l-9.2-9.2
			C235.2,356.1,229.5,365.1,229.5,375.3z"/>
		<path class="st13" d="M283.9,370.2c-1.4-7.4-5.8-13.7-11.9-17.7l-2.4,6v8.4l2.1,4.2l6.3,4.2L283.9,370.2z"/>
		<path class="st13" d="M257,402.8c7.5,0,14.3-3,19.3-8l-4.5-6.8l-4.2-2.1l-8.4,2.1h-6.3l-6.3,6.3l-2.1,5.3
			C248.1,401.6,252.4,402.8,257,402.8z"/>
	</g>
</g>
</svg>
